<?xml version="1.0" encoding="UTF-8" standalone="no"?>
<!-- Created with Inkscape (http://www.inkscape.org/) -->

<svg
   xmlns:dc="http://purl.org/dc/elements/1.1/"
   xmlns:cc="http://creativecommons.org/ns#"
   xmlns:rdf="http://www.w3.org/1999/02/22-rdf-syntax-ns#"
   xmlns:svg="http://www.w3.org/2000/svg"
   xmlns="http://www.w3.org/2000/svg"
   xmlns:sodipodi="http://sodipodi.sourceforge.net/DTD/sodipodi-0.dtd"
   xmlns:inkscape="http://www.inkscape.org/namespaces/inkscape"
   width="3751"
   height="1368"
   id="svg56654"
   version="1.1"
   inkscape:version="0.91 r13725"
   sodipodi:docname="logo_lobaton.svg">
  <defs
     id="defs56656" />
  <sodipodi:namedview
     id="base"
     pagecolor="#ffffff"
     bordercolor="#666666"
     borderopacity="1.0"
     inkscape:pageopacity="0"
     inkscape:pageshadow="2"
     inkscape:zoom="0.175"
     inkscape:cx="2263.8293"
     inkscape:cy="-158.89916"
     inkscape:document-units="px"
     inkscape:current-layer="g57260"
     showgrid="false"
     inkscape:window-width="1920"
     inkscape:window-height="1028"
     inkscape:window-x="-8"
     inkscape:window-y="-8"
     inkscape:window-maximized="1"
     fit-margin-top="0"
     fit-margin-left="0"
     fit-margin-right="0"
     fit-margin-bottom="0"
     units="pc" />
  <metadata
     id="metadata56659">
    <rdf:RDF>
      <cc:Work
         rdf:about="">
        <dc:format>image/svg+xml</dc:format>
        <dc:type
           rdf:resource="http://purl.org/dc/dcmitype/StillImage" />
        <dc:title></dc:title>
      </cc:Work>
    </rdf:RDF>
  </metadata>
  <g
     inkscape:label="Capa 1"
     inkscape:groupmode="layer"
     id="layer1"
     transform="translate(-37.391491,298.059)">
    <g
       transform="translate(24.649811,7.6752)"
       id="g57260">
      <path
         inkscape:connector-curvature="0"
         id="path4398"
         d="m 662.84679,1061.7416 c -49.73212,-2.9383 -105.32276,-12.0726 -149.46733,-24.5594 -10.9034,-3.084 -26.07539,-7.5734 -27.49399,-8.1355 -0.82482,-0.3266 -2.17452,-0.7336 -2.99934,-0.9042 -3.58008,-0.7408 -37.96996,-13.7294 -51.58861,-19.4845 -20.97605,-8.86403 -60.88849,-29.04203 -80.38254,-40.63769 -73.9895,-44.01148 -136.08063,-98.15274 -189.54894,-165.27997 -5.17417,-6.49598 -9.40757,-12.28871 -9.40757,-12.87278 0,-0.58408 -0.46402,-1.06197 -1.03115,-1.06197 -0.56715,0 -1.33131,-0.78734 -1.69814,-1.74963 -0.36684,-0.96229 -1.70243,-2.86977 -2.96797,-4.23887 -1.26555,-1.3691 -2.30099,-3.00804 -2.30099,-3.6422 0,-0.63416 -0.67486,-1.41189 -1.49968,-1.72842 -0.82481,-0.31653 -1.49967,-1.26452 -1.49967,-2.10654 0,-0.84212 -0.4499,-1.53107 -0.99978,-1.53107 -0.54988,0 -0.99978,-0.62676 -0.99978,-1.3927 0,-0.76602 -0.57769,-1.61434 -1.28373,-1.88528 -0.70605,-0.27094 -2.35144,-2.56864 -3.65642,-5.10588 -1.30497,-2.53735 -2.75186,-4.6133 -3.21528,-4.6133 -0.46344,0 -0.8426,-0.67485 -0.8426,-1.49967 0,-0.82482 -0.44991,-1.49967 -0.99979,-1.49967 -0.54988,0 -0.99978,-0.67485 -0.99978,-1.49967 0,-0.82482 -0.4499,-1.49968 -0.99978,-1.49968 -0.54988,0 -0.99978,-0.51988 -0.99978,-1.15534 0,-0.63546 -1.02142,-2.54755 -2.26982,-4.24907 -1.24841,-1.70153 -2.89909,-4.33096 -3.66818,-5.84313 -0.76909,-1.51217 -1.77224,-2.7494 -2.22919,-2.7494 -0.45697,0 -0.83084,-0.47789 -0.83084,-1.06186 0,-0.58407 -3.68942,-7.22012 -8.19873,-14.74678 C 98.474472,707.82699 76.29832,663.95967 68.239062,644.83705 52.639982,607.82435 44.6835,584.6955 33.330023,543.35923 5.4877491,441.9898 5.9158555,311.24318 34.423414,209.43223 45.764454,168.92918 54.672687,143.50714 70.157753,107.45453 73.913571,98.710134 97.11292,50.645841 97.905396,49.967089 c 0.321,-0.274939 2.354514,-3.986628 4.518914,-8.248196 2.16441,-4.261569 4.29721,-7.748307 4.73954,-7.748307 0.44232,0 0.80424,-0.520986 0.80424,-1.157747 0,-2.56254 21.54919,-35.970937 36.33407,-56.329687 34.13216,-47.000126 80.10129,-95.112112 125.98197,-131.854772 26.89133,-21.5355 58.20259,-42.95381 87.12943,-59.60058 18.09292,-10.41213 57.91292,-30.2235 76.14776,-37.88522 22.04138,-9.26117 62.44971,-23.46897 75.69335,-26.61428 1.16888,-0.27764 6.17434,-1.57626 11.12326,-2.88587 132.60295,-35.09052 272.2916,-30.58611 400.36941,12.91028 74.82718,25.41195 145.18266,64.05319 207.52636,113.97958 37.282,29.85618 76.2478,68.821462 105.8096,105.808076 75.2171,94.10863 123.7653,203.955814 142.5674,322.577994 10.9425,69.0364 10.5628,147.88686 -1.0473,217.45246 -22.9928,137.77148 -88.5563,266.86556 -185.7628,365.76615 -54.8934,55.84989 -113.0036,98.45897 -181.5692,133.1348 -80.19596,40.55753 -163.04565,63.64723 -256.44403,71.46923 -17.13926,1.4354 -71.31112,2.0446 -88.98058,1.0006 z M 3061.3226,718.79628 c -16.0341,-1.3615 -37.4452,-4.86453 -42.4907,-6.95197 -1.0997,-0.455 -5.1452,-2.10824 -8.9901,-3.6739 -9.9231,-4.04081 -22.4309,-12.16934 -29.2282,-18.99465 -5.9494,-5.97389 -15.27,-18.2657 -15.27,-20.1377 0,-0.57166 -0.3375,-1.18933 -0.7498,-1.3727 -0.4124,-0.18325 -2.0387,-3.03263 -3.614,-6.33191 -1.5752,-3.29928 -3.2623,-6.77992 -3.7491,-7.73471 -0.4869,-0.95489 -0.8851,-2.55204 -0.8851,-3.54923 0,-0.99728 -0.387,-2.2406 -0.8601,-2.76299 -0.4729,-0.52239 -1.6542,-4.99891 -2.6249,-9.94783 -2.3498,-11.97987 -2.5444,-48.59048 -0.2954,-55.55405 4.0241,-12.45938 11.4343,-14.93053 44.7714,-14.93053 26.6245,0 33.9834,1.26791 40.3418,6.95078 3.9462,3.52682 6.5899,11.01008 8.0665,22.833 0.3632,2.90896 1.1485,6.50818 1.745,7.99825 0.5966,1.48997 1.4325,3.60892 1.858,4.70868 5.9129,15.28845 17.7054,24.68559 33.8049,26.93831 4.3331,0.60636 16.6801,-1.75292 18.6109,-3.55623 0.5225,-0.48789 1.7597,-0.88701 2.7494,-0.88701 0.9899,0 1.7997,-0.44989 1.7997,-0.99977 0,-0.54988 0.4689,-0.99979 1.0419,-0.99979 1.3084,0 2.9637,-1.3458 8.5872,-6.98187 4.7391,-4.74986 9.9299,-14.183 11.6945,-21.25226 0.7259,-2.90816 1.2676,-77.50305 1.7081,-235.20828 0.4074,-145.81443 1.0104,-232.79232 1.636,-235.94842 2.2757,-11.48259 6.6129,-16.38703 16.3233,-18.45826 6.0267,-1.28553 53.7463,-0.94281 59.9869,0.43079 9.1672,2.01777 13.3065,8.92385 14.9999,25.02593 1.4744,14.02014 0.7868,483.54651 -0.7263,495.89161 -0.916,7.47277 -4.0408,18.7652 -6.2905,22.73143 -0.5415,0.95489 -0.9846,2.37958 -0.9846,3.16601 0,0.78642 -0.3375,1.57985 -0.7498,1.76321 -0.4125,0.18326 -1.5406,1.90788 -2.5071,3.83246 -5.5102,10.97391 -15.5706,23.41569 -24.2544,29.99585 -10.715,8.11932 -24.8813,15.9941 -28.7723,15.9941 -0.8721,0 -1.8638,0.44991 -2.2036,0.99978 -0.3399,0.54988 -1.8511,0.99978 -3.3583,0.99978 -1.5073,0 -3.1678,0.37322 -3.6902,0.82932 -1.0658,0.9306 -10.1861,2.72481 -21.4453,4.21898 -10.5076,1.3944 -53.3817,1.99587 -65.9856,0.92579 z m 275.0376,-0.086 c -5.17,-0.45931 -10.8905,-1.32691 -12.712,-1.92808 -4.1069,-1.35531 -8.9651,-5.79393 -10.4987,-9.59191 -3.6666,-9.08001 -3.7624,-16.50069 -3.774,-292.3034 -0.012,-279.91552 0.041,-283.64739 4.1132,-293.05414 2.0643,-4.76786 7.0054,-8.27629 13.7757,-9.78136 7.471,-1.66084 141.5731,-0.9473 150.4672,0.80062 3.2993,0.64836 7.6858,1.43349 9.7478,1.74462 2.0621,0.31123 3.7492,0.96849 3.7492,1.46058 0,0.49209 0.7311,0.8948 1.6247,0.8948 1.9955,0 13.7443,5.14499 14.2052,6.22075 0.1834,0.42771 1.1956,0.77773 2.2495,0.77773 1.054,0 1.9163,0.34753 1.9163,0.77242 0,0.42481 1.5747,1.62046 3.4992,2.65683 1.9246,1.03647 3.4993,2.2636 3.4993,2.7268 0,0.4633 0.8997,0.84242 1.9995,0.84242 1.0997,0 1.9996,0.34002 1.9996,0.75573 0,0.95639 5.1786,3.26898 9.5058,4.24487 3.6216,0.81682 13.4891,-0.74403 13.4891,-2.13373 0,-0.4771 0.8998,-0.86731 1.9996,-0.86731 1.0998,0 1.9996,-0.35132 1.9996,-0.78063 0,-0.42931 1.2372,-1.29762 2.7494,-1.92948 2.8831,-1.20483 8.3931,-4.39104 9.2479,-5.34773 0.8791,-0.98379 15.3505,-7.62083 19.4958,-8.94134 2.1995,-0.70075 4.8989,-1.62585 5.9987,-2.05585 1.0997,-0.43001 4.2491,-1.15495 6.9985,-1.61106 6.6573,-1.10436 147.8516,-1.04207 152.9665,0.068 5.3221,1.15445 10.3527,5.0406 12.276,9.48283 4.0672,9.39435 4.1224,13.2657 4.1724,292.26851 0.033,185.99664 -0.2834,270.79301 -1.0384,277.93925 -1.234,11.68195 -2.8538,16.81412 -6.4384,20.39864 -4.1508,4.15079 -8.7254,5.35233 -25.0374,6.57616 -21.2536,1.59465 -44.4715,-0.065 -52.0099,-3.71829 -5.3843,-2.60923 -8.4413,-7.03355 -10,-14.47263 -0.4033,-1.92458 -1.0129,-107.42652 -1.3547,-234.44876 -0.6728,-249.95566 -0.3312,-235.42583 -5.7828,-245.94623 -2.6368,-5.08839 -6.1678,-8.12223 -12.9382,-11.11637 -4.6146,-2.04086 -6.9651,-2.38069 -16.4678,-2.38069 -10.5189,0 -20.6808,1.99127 -21.6843,4.24908 -0.1833,0.41241 -1.1957,0.74984 -2.2495,0.74984 -1.054,0 -1.9163,0.44989 -1.9163,0.99977 0,0.54988 -0.5624,1.00908 -1.2498,1.02058 -1.7211,0.029 -11.9661,10.79764 -13.7715,14.47604 -0.8094,1.64964 -1.7599,3.2243 -2.112,3.49924 -0.3521,0.27494 -1.1744,2.29949 -1.8274,4.49901 -0.6528,2.19952 -1.7017,5.57378 -2.3308,7.49836 -0.8369,2.56054 -1.3098,63.30866 -1.7626,226.4505 -0.4043,145.69486 -0.976,225.0562 -1.65,229.02584 -2.6865,15.82474 -7.6617,18.67872 -34.8301,19.97983 -15.7681,0.75524 -38.8267,-0.85722 -44.1666,-3.08832 -4.6046,-1.92398 -8.6408,-6.4117 -9.9985,-11.11727 -3.0866,-10.69717 -3.2943,-25.56552 -3.2847,-235.18399 0.01,-130.51748 -0.3542,-212.72031 -0.9415,-214.95301 -0.5232,-1.98837 -1.7194,-6.66975 -2.6585,-10.40303 -0.9391,-3.73329 -2.0857,-7.02157 -2.5482,-7.30741 -0.4624,-0.28544 -0.8407,-1.15884 -0.8407,-1.94048 0,-4.19477 -14.9169,-21.4557 -18.542,-21.4557 -0.7996,0 -1.4536,-0.34012 -1.4536,-0.75573 0,-0.97129 -4.173,-2.809 -10.946,-4.82035 -8.2709,-2.45627 -24.9693,-1.63105 -31.5447,1.55885 -5.4531,2.64543 -9.7454,6.66075 -12.2052,11.41751 -4.3181,8.35037 -4.2182,2.7372 -4.2556,238.99395 -0.026,161.41452 -0.3549,227.31242 -1.1664,233.44897 -2.6267,19.85966 -6.206,23.11725 -27.448,24.98065 -13.4882,1.18314 -24.6345,1.17024 -38.3089,-0.044 z M 1517.1187,367.54657 c -18.2466,-4.5914 -32.9818,-20.85725 -35.526,-39.21623 -0.5311,-3.83276 -0.8438,-16.63117 -0.6952,-28.44098 l 0.2705,-21.4722 24.2448,-0.26775 24.2446,-0.26774 0,15.99411 c 0,18.53544 1.0522,22.66624 6.6555,26.12918 5.1485,3.182 14.1827,2.38558 18.3624,-1.61895 1.6614,-1.59165 3.4823,-4.48732 4.0466,-6.43469 0.6258,-2.15963 0.9096,-14.26518 0.7275,-31.03472 l -0.2985,-27.49399 -20.9953,-0.57446 c -22.1858,-0.60698 -25.083,-1.14896 -33.9599,-6.35272 -6.2771,-3.6798 -15.2559,-13.75419 -18.5195,-20.77916 -1.6062,-3.45745 -3.3867,-9.21059 -3.9566,-12.78481 -1.3595,-8.52523 -1.3459,-72.57433 0.017,-80.98229 2.9608,-18.26281 18.7996,-34.554648 36.938,-37.994596 6.8384,-1.296816 45.1267,-1.290918 52.0872,0.01 13.4277,2.506052 26.5078,12.344297 32.3491,24.331377 4.7183,9.68289 5.5126,16.07059 5.5214,44.3984 l 0.01,24.24469 -24.4946,0 -24.4946,0 0,-19.02803 c 0,-21.28705 -0.6185,-24.13073 -6.0968,-28.03157 -4.4933,-3.19951 -13.4455,-3.38237 -17.5716,-0.35903 -6.1549,4.51002 -6.3641,5.84872 -6.0815,38.9205 l 0.2563,29.99344 20.4955,0.59997 c 21.7315,0.63626 25.83,1.40929 34.6028,6.52697 6.303,3.6769 15.096,13.51984 18.3843,20.57941 4.6297,9.93982 5.1918,16.78812 4.7614,58.01242 -0.4393,42.0712 -0.5697,42.94101 -8.0967,53.98739 -5.0082,7.34989 -14.0714,14.59751 -22.3336,17.8597 -5.4491,2.15142 -7.4276,2.31569 -30.8174,2.55783 -17.6561,0.18277 -26.4745,-0.11367 -30.0349,-1.00957 z m 335.4682,0.30404 c -2.4746,-0.5041 -7.682,-2.48506 -11.5722,-4.40194 -12.8495,-6.33162 -22.0482,-18.99355 -24.3683,-33.54277 -1.4003,-8.78069 -1.4153,-190.04306 -0.017,-198.95651 2.2752,-14.49833 11.5749,-26.72806 25.5924,-33.655946 l 7.7615,-3.835862 28.5456,0 28.5456,0 7.7639,3.70729 c 10.4516,4.990608 17.7353,11.997778 22.5115,21.656468 l 3.7172,7.51706 0.307,28.29981 0.3071,28.29981 -23.9582,0 -23.9582,0 -0.3436,-18.7459 c -0.3054,-16.66155 -0.5698,-19.13501 -2.3771,-22.24514 -5.3389,-9.18659 -19.109,-9.03892 -24.19,0.25935 -1.655,3.02863 -1.7704,8.81397 -1.7704,88.7212 0,81.98418 0.077,85.60869 1.8851,88.59504 2.5979,4.29106 6.5688,6.3842 12.1118,6.3842 5.543,0 9.5139,-2.09314 12.1118,-6.3842 1.6309,-2.69371 1.9317,-5.64987 2.2297,-21.91482 0.1895,-10.34053 0.068,-19.90094 -0.269,-21.24535 -0.5863,-2.33709 -0.963,-2.44427 -8.5924,-2.44427 l -7.9791,0 0,-16.99628 0,-16.99629 32.4928,0 32.493,0 0,45.83339 c 0,43.26304 -0.1124,46.1601 -2.004,51.658 -4.7552,13.82148 -14.3779,23.40229 -28.8831,28.75742 -4.9976,1.84509 -8.205,2.09764 -29.5997,2.33109 -13.1972,0.14407 -26.0193,-0.15067 -28.4937,-0.65485 z m 166.4635,-0.34053 c -13.0401,-3.17531 -25.1011,-12.98827 -31.2469,-25.42275 l -3.7454,-7.57784 -0.2658,-119.27622 -0.2659,-119.276233 24.5105,0 24.5106,0 0.035,110.725793 c 0.028,88.13384 0.2969,111.19699 1.3172,113.0355 3.3903,6.10966 13.7886,8.22629 20.4528,4.16318 6.5086,-3.96813 6.1885,2.15733 6.1885,-118.41631 l 4e-4,-109.508163 24.4946,0 24.4947,0 0,114.291313 c 0,77.7694 -0.3463,116.1871 -1.0836,120.22372 -3.3595,18.39308 -18.1747,33.45569 -36.7074,37.32044 -7.1847,1.49828 -46.236,1.28893 -52.6893,-0.28243 z m -369.4192,-136.58255 0,-134.970493 62.9862,0 62.9863,0 0,24.482753 0,24.48274 -38.2417,0.26185 -38.2416,0.26184 -0.2649,29.74349 -0.2648,29.74351 27.5089,0 27.5089,0 0,24.47854 0,24.47855 -27.2441,0.26604 -27.244,0.26605 0,31.49311 0,31.49311 38.2416,0.26186 38.2417,0.26174 0,23.98295 0,23.98286 -62.9863,0 -62.9862,0 z m 500.8905,-0.065 0,-135.035275 44.7402,0.358322 c 42.5489,0.340725 45.0148,0.461298 50.3452,2.460862 15.0887,5.660261 25.4684,16.918001 29.3545,31.837741 2.0782,7.97915 2.1965,62.99643 0.1541,71.67563 -1.4069,5.97809 -4.9643,11.64855 -9.7822,15.59279 -3.2906,2.69391 -3.7481,6.61756 -0.9465,8.11693 2.9964,1.60375 7.9791,9.89933 10.1315,16.86811 1.8721,6.06107 1.9757,9.45653 1.9757,64.77824 l 0,58.38184 -24.4946,0 -24.4947,0 0,-53.58708 c 0,-59.30095 0.081,-58.51671 -6.4186,-62.52164 -2.5333,-1.56106 -4.6749,-1.8504 -12.0774,-1.63154 l -8.998,0.26594 -0.2579,58.73715 -0.258,58.73717 -24.4866,0 -24.4867,0 z m 73.7135,-31.19938 2.7698,-2.77019 0.2994,-24.42796 c 0.2564,-20.93563 0.068,-24.87446 -1.3162,-27.55187 -2.3701,-4.58311 -6.9203,-6.09758 -17.2882,-5.75385 l -8.6891,0.28794 -0.2649,30.48304 c -0.1458,16.76563 -0.032,31.0909 0.2534,31.83394 0.4017,1.04696 2.8757,1.27432 10.9922,1.01018 9.8977,-0.32213 10.6261,-0.4932 13.2436,-3.11123 z m 92.2502,31.26417 0,-134.970493 24.4947,0 24.4947,0 0,134.970493 0,134.9705 -24.4947,0 -24.4947,0 z m 95.979,0 0,-134.970493 39.2415,0.017 c 43.4526,0.019 47.8123,0.466398 58.8471,6.036776 8.1628,4.1206 18.4596,14.43795 22.2215,22.26594 5.6344,11.72413 5.6267,11.57927 5.6392,105.6506 0.01,51.43956 -0.3833,88.91177 -0.9627,92.47979 -3.1811,19.58462 -16.9558,35.99743 -34.8499,41.52432 -5.9003,1.8225 -9.4273,1.96617 -48.2511,1.96617 l -41.8856,0 0,-134.97049 z m 72.4985,83.97275 c 6.1738,-3.81557 5.9844,-1.13746 5.9844,-84.6494 0,-75.4564 -0.019,-76.18625 -2.0707,-78.98274 -3.6951,-5.037 -7.7822,-6.3877 -18.4248,-6.08876 l -9.4979,0.26684 -0.2556,85.73126 -0.2556,85.73126 10.6353,0 c 8.9059,0 11.1637,-0.32663 13.8849,-2.00846 z m 94.6952,-67.7263 0.2698,-118.72405 3.7276,-7.80679 c 6.3716,-13.34398 17.4096,-22.534974 31.4579,-26.194174 6.9966,-1.822302 45.3104,-2.095842 53.4959,-0.381916 16.6531,3.487037 31.9127,18.43317 35.7315,34.99735 0.6494,2.81718 1.0194,45.92986 1.0352,120.60904 l 0.024,116.22459 -24.4946,0 -24.4947,0 0,-55.48787 0,-55.48788 -13.9969,0 -13.997,0 0,55.48788 0,55.48787 -24.5144,0 -24.5146,0 0.2699,-118.72405 z m 76.5177,-72.58723 0.2645,-30.84626 -3.8961,-3.89615 c -3.6812,-3.68109 -4.2343,-3.89605 -10.0271,-3.89605 -5.586,0 -6.4629,0.30404 -9.8655,3.42105 l -3.7345,3.42115 -0.2927,30.2388 c -0.161,16.63137 -0.058,30.85156 0.2297,31.60039 0.4123,1.07426 3.3221,1.30272 13.7898,1.08246 l 13.2673,-0.27904 z m 90.2156,56.31279 0,-135.076975 42.7407,0.343025 42.7407,0.343126 6.5137,2.51415 c 12.6713,4.890934 21.6823,12.446874 28.0061,23.483674 6.1187,10.67866 5.9737,8.03634 5.9469,108.3811 -0.016,59.17226 -0.3886,93.10025 -1.0547,95.99112 -3.2807,14.23708 -13.9866,27.48079 -27.7161,34.28591 l -8.5413,4.23347 -44.3179,0.28923 -44.3181,0.28914 z m 75.217,82.24102 3.2659,-3.26818 0.2565,-77.71412 c 0.2525,-76.55306 0.2262,-77.7635 -1.7716,-81.02349 -2.8928,-4.72086 -7.2424,-6.18844 -18.3415,-6.18844 -7.6703,0 -9.5359,0.29413 -10.0298,1.58145 -0.8134,2.11953 -0.7825,166.76045 0.032,168.88208 0.5545,1.44519 2.1305,1.62035 11.9807,1.33151 11.2974,-0.33122 11.3552,-0.34552 14.6081,-3.60081 z"
         style="fill:#cf6428"
         sodipodi:nodetypes="sscsssssssssssssscssssssssssssssssssssssscsssssssssscsssscscsssssccccccsssscscsssscscsssssssccccscsccsscsscssscssscscssccssssccsssscssccccsscsscccccssssscsssccccscccssccscsscsccccccccsssscssssssscccsscscccsscccccsscscssscscccccsssscsscccccscsscccscsscccccccccccccccccccccccccccssccsssscccscsccccccccscccscsccccccccccccsssccssccccscscccscccscssscccccccccccccccssscscsccccccsssssccccccscsscscc" />
      <path
         inkscape:connector-curvature="0"
         id="path4402"
         d="m 595.36155,996.13087 c -32.90296,-2.57295 -55.70763,-5.5125 -81.48219,-10.50331 C 365.71114,956.93703 230.95087,872.61167 139.86692,751.59182 66.4188,654.00395 25.152511,543.5021 15.993312,419.88623 13.9437,392.22387 14.893993,343.03633 18.040765,313.90939 30.00472,203.1691 70.352809,99.366191 135.79082,10.975613 c 34.76933,-46.964834 79.83923,-92.334817 126.6435,-127.486833 152.15532,-114.27502 350.27058,-151.72503 533.94291,-100.93184 127.6009,35.28718 241.22597,110.77738 323.49137,214.9216228 77.6155,98.2573222 123.4453,216.5604572 131.8126,340.2551272 1.3183,19.48833 1.3312,64.44111 0.024,82.65242 -4.6751,65.11607 -18.8482,126.69251 -43.148,187.45903 -8.4224,21.0619 -27.579,60.22933 -38.8747,79.48263 -74.3974,126.80967 -188.41695,222.06086 -326.37483,272.6513 -47.54572,17.43548 -97.66025,28.84549 -151.09947,34.40208 -14.11382,1.46758 -84.25014,2.7347 -96.84635,1.74972 z m 104.97707,-64.73045 c 45.81428,-4.95882 83.22891,-13.11064 124.29812,-27.08178 65.24734,-22.19615 123.36004,-54.84582 177.19156,-99.55214 16.1487,-13.41117 53.5439,-50.86578 67.3429,-67.44966 74.0942,-89.04814 116.4185,-190.06625 127.7602,-304.93334 1.7394,-17.61635 1.7226,-82.65854 -0.026,-100.47805 -11.4398,-116.58561 -55.3235,-220.14717 -130.9085,-308.93246 -14.4572,-16.9819879 -47.8777,-50.222821 -63.6881,-63.345454 -36.81875,-30.559919 -69.27114,-51.604619 -112.01171,-72.636916 -27.20065,-13.38528 -44.62085,-20.52802 -71.98426,-29.51545 -29.85397,-9.80546 -62.70489,-17.54477 -92.97968,-21.90491 -45.09264,-6.49429 -99.55364,-7.23662 -145.46822,-1.98288 -106.31454,12.16504 -207.78517,56.05935 -291.90101,126.270906 -14.29454,11.931692 -43.01506,39.95816587 -55.96913,54.616562 -69.46497,78.604217 -114.6222,173.224632 -131.45265,275.439792 -5.95056,36.1391 -8.035104,65.64175 -7.27597,102.97749 0.588382,28.93797 2.171845,47.74256 6.31411,74.98361 22.99595,151.22944 110.00507,287.81419 237.33776,372.56686 81.91497,54.52268 169.73065,84.65779 268.94121,92.29082 17.1574,1.32012 77.8837,0.46331 94.47937,-1.333 z M 665.34625,871.17478 C 624.82948,868.00097 595.1796,862.92459 560.86908,853.28709 479.66036,830.47648 406.26691,787.43289 346.91585,727.80842 266.81002,647.33371 219.43344,549.69945 205.26015,435.88273 202.66632,415.05318 202.65157,349.94172 205.23596,328.90611 215.1367,248.31843 241.86368,175.90876 285.86842,110.45387 315.64377,66.164449 357.10513,22.4671 399.4044,-9.2051761 466.55912,-59.488285 548.77683,-92.960769 630.8538,-103.43278 c 30.06291,-3.83566 73.51614,-4.93502 101.97772,-2.58003 115.91616,9.591399 224.5842,59.766531 306.42038,141.483068 75.4128,75.302632 124.0365,172.067192 138.9094,276.439572 3.9717,27.87201 4.9515,41.72148 4.9515,69.9847 0,76.63435 -16.614,148.04044 -50.3619,216.45269 -24.4153,49.49348 -53.5483,90.08601 -92.9534,129.51659 -37.9925,38.01698 -75.47359,65.34201 -123.50609,90.04022 -54.58517,28.06756 -110.32648,44.68973 -172.4623,51.42876 -13.74789,1.49107 -67.00606,2.7411 -78.48284,1.84199 z M 1529.1697,733.20364 c -21.3896,-5.17087 -39.7499,-23.92097 -43.5141,-44.43799 -0.5852,-3.1896 -0.9067,-17.68383 -0.7543,-33.99256 l 0.2658,-28.43199 31.9931,0 31.993,0 0.4998,20.49552 c 0.4216,17.28082 0.773,20.89713 2.2407,23.05576 2.3488,3.45475 8.7881,6.93768 12.8264,6.93768 4.4418,0 11.4551,-3.52743 13.9334,-7.00796 1.9424,-2.7279 2.0102,-4.1028 1.7567,-35.65641 l -0.2638,-32.81913 -23.4949,-0.60636 c -22.3118,-0.57578 -23.9185,-0.74884 -31.9102,-3.43695 -10.1545,-3.41566 -18.1692,-8.58662 -25.1754,-16.24265 -5.9568,-6.50928 -12.3801,-19.03754 -13.8894,-27.09018 -0.5842,-3.11692 -1.003,-23.96246 -0.9944,-49.48918 0.012,-35.77249 0.2994,-45.312 1.5223,-50.49936 4.6355,-19.6655 21.2416,-35.93455 42.7359,-41.86855 9.1936,-2.53814 64.2249,-2.53814 73.4185,0 21.2907,5.87781 38.3788,22.47469 42.2165,41.00303 0.6919,3.34028 0.9926,17.12566 0.8233,37.75435 l -0.2665,32.4929 -31.9929,0 -31.9931,0 -0.2684,-23.92468 c -0.2646,-23.58594 -0.3028,-23.96965 -2.693,-27.10336 -6.6681,-8.74219 -20.1851,-8.47585 -26.135,0.51498 l -2.4237,3.6625 0.2635,33.92298 0.2635,33.92299 23.4948,0.64776 c 16.6583,0.4593 25.1675,1.11005 29.243,2.23661 20.3628,5.62867 36.0614,21.09339 41.2663,40.65142 2.2593,8.48994 2.1432,98.3189 -0.1371,106.00003 -5.7945,19.51853 -22.0074,34.57904 -42.3783,39.36589 -9.0643,2.13003 -63.6025,2.08704 -72.472,-0.057 z m 317.0749,0.069 c -16.201,-4.02193 -32.4345,-17.21095 -39.1958,-31.84505 -4.7582,-10.29844 -5.5883,-18.07334 -5.2416,-49.09177 l 0.2907,-25.99431 31.993,0 31.993,0 0.4998,20.07701 c 0.4959,19.91335 0.5219,20.10571 3.193,23.60414 5.5262,7.23792 15.3069,8.71139 22.3199,3.36237 6.3697,-4.85844 6.5381,-5.9564 6.2445,-40.72631 l -0.2643,-31.31215 -23.9947,-0.63956 c -18.5209,-0.49359 -25.2488,-1.03237 -29.4918,-2.36188 -20.0666,-6.28763 -34.7534,-20.73427 -40.6542,-39.98916 -1.6745,-5.4644 -1.8382,-10.22877 -1.8382,-53.48831 0,-46.24419 0.058,-47.67428 2.215,-54.52968 5.7107,-18.15073 21.503,-32.67796 41.5582,-38.22914 5.2855,-1.46298 10.9296,-1.71612 37.709,-1.69094 l 31.4931,0.03 7.9982,2.79329 c 11.0143,3.84666 17.0611,7.51836 24.4819,14.86605 7.754,7.67742 13.4331,18.7507 15.0123,29.2711 0.608,4.05071 0.9339,19.42146 0.7737,36.49202 l -0.2766,29.49356 -31.9931,0 -31.9929,0 -0.4999,-23.49487 c -0.5442,-25.57211 -0.6585,-26.10669 -6.5542,-30.60351 -7.612,-5.80582 -18.7045,-3.60141 -23.335,4.63739 -2.0725,3.68749 -2.1238,4.70717 -1.8675,37.12399 l 0.2636,33.33241 23.9948,0.59887 c 23.2352,0.57977 24.2651,0.69245 32.537,3.55912 18.8777,6.54207 30.8281,18.73891 37.5584,38.33272 1.7492,5.09259 1.8888,9.04412 1.8888,53.48831 0,46.91324 -0.05,48.14917 -2.2388,55.10795 -5.1756,16.45591 -17.9337,29.2595 -36.1332,36.26188 -6.5566,2.52265 -6.9253,2.54854 -39.611,2.78059 -26.0965,0.18525 -34.214,-0.069 -38.8351,-1.21623 z m -156.1549,-2.68962 c -0.2645,-0.69525 -0.3653,-72.12353 -0.2241,-158.7296 l 0.2567,-157.46558 31.4931,0 31.4931,0 0,158.46536 0,158.46536 -31.269,0.26424 c -24.4783,0.20685 -31.3735,-0.01 -31.7498,-0.99978 z m 351.9266,-2e-4 c -0.2624,-0.69515 -0.588,-58.40133 -0.7238,-128.23607 l -0.2469,-126.97225 -23.4948,-0.49988 -23.4949,-0.49989 0,-29.99345 0,-29.99344 79.4826,0 79.4827,0 0,29.99344 0,29.99345 -22.995,0.49989 -22.995,0.49988 -0.4999,127.97204 -0.4999,127.97202 -31.769,0.26404 c -24.88,0.20675 -31.8725,-0.01 -32.2461,-0.99978 z m 153.9596,-0.01 c -0.2627,-0.69065 -0.3621,-72.11523 -0.2209,-158.7213 l 0.2568,-157.46558 79.4825,0 79.4827,0 0,29.99344 0,29.99345 -46.9897,0.49989 -46.9898,0.49988 0,32.49291 0,32.49289 33.4928,0.4999 33.4926,0.49989 0,29.99344 0,29.99344 -33.4926,0.4999 -33.4928,0.49988 0,33.99257 0,33.99257 46.9898,0.49989 46.9897,0.4999 0,29.99344 0,29.99344 -79.2618,0.25595 c -62.8806,0.20306 -79.3604,0 -79.7393,-0.99979 z m 204.9583,0.01 c -0.2645,-0.69515 -0.3653,-72.12333 -0.224,-158.7294 l 0.2568,-157.46558 46.9897,-0.29473 c 32.1793,-0.20186 48.873,0.064 52.9649,0.84461 9.3606,1.78511 17.7638,5.59027 22.0588,9.98901 2.1257,2.17683 4.3602,3.95794 4.9656,3.95794 0.6053,0 2.5814,-1.52786 4.3914,-3.39516 3.9585,-4.0842 14.7321,-9.23268 22.2142,-10.61587 3.2948,-0.60908 24.1545,-0.90311 52.8999,-0.74575 l 47.4599,0.25955 0,158.46536 0,158.46536 -31.993,0 -31.9929,0 -0.5,-127.97202 -0.4998,-127.97204 -8.4982,0.029 c -9.7856,0.033 -15.2735,2.34049 -18.5861,7.81349 -1.8444,3.04764 -1.9264,7.32611 -2.4093,125.62834 l -0.4999,122.47323 -31.993,0 -31.993,0 -0.4999,-122.47323 -0.4999,-122.47323 -2.2674,-3.1788 c -4.1919,-5.87702 -8.6452,-7.7836 -18.2238,-7.8023 l -8.5025,-0.017 -0.4998,127.97204 -0.4999,127.97202 -31.7691,0.26404 c -24.8785,0.20675 -31.8734,-0.01 -32.2497,-0.99978 z m 302.1472,0.58287 c -0.3742,-0.37411 -0.6751,-61.90436 -0.6685,-136.7339 0.01,-116.14862 0.2257,-136.85699 1.4731,-141.54486 4.07,-15.29466 15.5755,-29.12234 29.9033,-35.93905 13.066,-6.21624 15.6153,-6.55996 48.5943,-6.55246 33.0004,0.01 35.9667,0.43359 49.1129,7.05395 12.8476,6.46999 23.3068,18.48796 28.0585,32.24025 l 2.3112,6.68904 0,137.46995 0,137.46995 -31.993,0 -31.9931,0 -0.4998,-64.48591 -0.4999,-64.4859 -14.4968,0 -14.4969,0 -0.4998,64.4859 -0.4999,64.48591 -31.5627,0.26374 c -17.3594,0.14507 -31.8687,-0.042 -32.2429,-0.41661 z m 94.0882,-221.79901 c 0.1589,-17.04627 0.025,-32.46211 -0.2981,-34.25732 -0.7773,-4.32125 -6.507,-9.95802 -10.974,-10.79604 -5.817,-1.09126 -10.2695,0.32024 -14.5673,4.618 l -3.9433,3.94334 0,33.32601 c 0,18.32939 0.3117,33.63785 0.6927,34.01886 0.3811,0.38102 7.0172,0.56848 14.7467,0.41661 l 14.0541,-0.27624 z m 163.6749,-126.84028 c -15.4009,-5.0307 -25.4766,-14.52372 -31.1669,-29.36528 -2.4403,-6.3644 -2.5983,-7.86727 -2.7085,-25.75467 l -0.1171,-18.99585 25.4945,0 25.4944,0 0.2816,11.74583 0.2816,11.74585 3.501,3.50083 c 3.055,3.05503 4.1288,3.50083 8.4331,3.50083 4.3177,0 5.3748,-0.4425 8.4841,-3.55193 l 3.5519,-3.55192 -0.2693,-21.69255 -0.2693,-21.69257 -19.4957,-0.54338 c -21.3956,-0.59626 -25.4755,-1.52766 -35.3539,-8.07094 -10.3383,-6.84779 -17.8614,-19.6202 -19.6592,-33.37649 -0.6674,-5.10599 -0.9421,-33.66774 -0.7601,-78.98274 l 0.2853,-70.984483 25.4945,0 25.4944,0 0.2384,68.984923 c 0.1773,51.27729 0.5462,69.57109 1.437,71.26862 1.6732,3.1883 6.9429,6.21444 10.8219,6.21444 3.8789,0 9.1485,-3.02614 10.8218,-6.21444 0.8907,-1.69753 1.2597,-19.99133 1.437,-71.26862 l 0.2384,-68.984923 25.4944,0 25.4944,0 0,124.972683 0,124.97268 -2.2539,5.9179 c -4.9721,13.05556 -12.6947,21.50241 -25.0543,27.40462 l -7.6841,3.66939 -26.9941,0.21925 c -20.0207,0.16257 -28.0272,-0.11827 -30.9933,-1.08706 z"
         style="fill:#2b2b2a"
         sodipodi:nodetypes="cssssssssscssssccsssssssssssssssssssscssssssssssssssscccsscccscscscsssssssscscccssccccssssscccsscccsssscsssscsccsscscccsssscsssscsscccscccccsccscccccccccccccsccscccccccccccccccccccccsccscsccscsscccccccccscccccsccccscccssscsscccccccccccscscsscscscsccsccccccsccccsscscccscscscccccsscsc" />
      <path
         inkscape:connector-curvature="0"
         id="path4404"
         d="m 1529.2586,732.25505 c -21.1624,-5.23176 -38.7765,-23.15085 -42.5766,-43.31413 -0.5582,-2.96196 -1.015,-18.14614 -1.015,-33.74262 l 0,-28.35731 31.4932,0 31.4931,0 0,19.02794 c 0,21.42042 0.5802,24.01535 6.355,28.41999 7.0253,5.35853 17.3868,4.00983 23.605,-3.07243 l 3.0593,-3.48424 -0.2633,-33.69274 -0.2632,-33.69273 -23.9947,-0.58417 c -23.3795,-0.56918 -24.2169,-0.66145 -32.6578,-3.60072 -10.2836,-3.58092 -20.1712,-10.28395 -26.0178,-17.63814 -5.172,-6.50547 -10.4719,-17.53927 -11.7938,-24.55333 -0.5916,-3.13911 -1.0088,-23.781 -1.0002,-49.48918 0.012,-35.80278 0.299,-45.3095 1.5247,-50.50946 4.4835,-19.02055 20.875,-35.11342 41.5755,-40.81808 9.4555,-2.60584 64.2796,-2.60584 73.7351,0 14.8564,4.0941 30.0711,15.52301 36.3469,27.30283 5.3052,9.95783 5.7683,13.94176 5.7683,49.62446 l 0,32.78273 -31.4931,0 -31.4931,0 0,-23.99185 0,-23.99196 -3.5653,-3.94624 c -4.2122,-4.66238 -8.9799,-6.48099 -15.1635,-5.78404 -5.1085,0.57578 -8.7491,2.91687 -12.0274,7.73382 -2.2556,3.31446 -2.2614,3.42445 -1.9995,37.89971 l 0.2628,34.57564 23.9947,0.64516 c 25.9594,0.69795 30.9113,1.50687 41.2479,6.73783 12.5329,6.34241 22.5617,17.51207 27.4827,30.60871 2.2111,5.88491 2.2593,6.93498 2.5398,55.35799 0.2501,43.15548 0.082,50.06676 -1.3384,54.98799 -4.9813,17.26132 -18.1414,30.72228 -36.4393,37.27284 -6.242,2.23452 -7.782,2.33469 -38.9915,2.53505 -25.6612,0.16477 -33.7329,-0.098 -38.3905,-1.24932 z m 316.9745,0.015 c -15.527,-3.85396 -31.2289,-16.4696 -37.9633,-30.50163 -4.8896,-10.18808 -5.6288,-16.48889 -5.6523,-48.18307 l -0.02,-26.74435 31.4932,0 31.4931,0 0,18.68021 c 0,16.85012 0.2028,19.09923 2.0706,22.95728 5.1149,10.5663 19.1986,12.32441 27.2587,3.40277 1.9527,-2.16144 3.8185,-5.41892 4.1462,-7.23883 0.3276,-1.81999 0.4654,-17.03097 0.3064,-33.8023 l -0.2892,-30.49334 -24.4946,-0.63696 c -26.9132,-0.69985 -30.1854,-1.28182 -42.0432,-7.47756 -12.3753,-6.46619 -22.9378,-19.20461 -27.2263,-32.83503 -2.1568,-6.8553 -2.2149,-8.28538 -2.2149,-54.52958 0,-43.23825 0.1643,-48.0267 1.8363,-53.48831 5.5798,-18.22801 21.1226,-32.79952 40.7788,-38.23014 5.4759,-1.51297 10.8124,-1.75692 37.8673,-1.73152 l 31.4931,0.03 7.9886,2.79339 c 10.605,3.70819 17.8893,8.26939 24.8344,15.55071 6.8158,7.14563 12.14,17.73272 13.6219,27.08667 0.5663,3.57423 1.033,19.88315 1.0371,36.24208 l 0.01,29.7435 -31.4932,0 -31.4931,0 0,-22.59397 c 0,-25.71198 -0.4469,-27.67724 -7.3316,-32.23325 -3.2585,-2.15642 -5.1845,-2.66021 -10.1693,-2.66021 -5.137,0 -6.731,0.44339 -9.6802,2.69301 -6.793,5.18126 -6.8692,5.68465 -6.5749,43.47619 l 0.2634,33.81331 24.4946,0.60867 c 23.1498,0.57517 24.9318,0.75714 32.4548,3.31327 18.2493,6.20075 30.4251,18.3097 36.7711,36.56921 2.2232,6.397 2.2585,7.24862 2.2585,54.48809 0,46.76877 -0.056,48.16867 -2.2163,55.03387 -5.0283,15.98201 -18.195,29.06944 -35.8553,35.63931 -5.5976,2.08244 -7.7091,2.21571 -38.9116,2.45676 -26.1752,0.20226 -34.2024,-0.045 -38.8466,-1.19814 z m -155.6109,-159.41725 0,-157.96547 30.9932,0 30.9933,0 0,157.96547 0,157.96548 -30.9933,0 -30.9932,0 0,-157.96548 z m 351.677,29.7435 -0.2538,-128.22197 -23.7447,-0.26804 -23.7449,-0.26804 0,-29.47546 0,-29.47546 78.9827,0 78.9827,0 0,29.47506 0,29.47516 -23.2449,0.26834 -23.2449,0.26844 -0.2537,128.22197 -0.2537,128.22198 -31.4856,0 -31.4855,0 -0.2537,-128.22198 z m 154.2124,-29.7435 0,-157.96547 78.9827,0 78.9829,0 0,29.48375 0,29.48377 -47.2398,0.25974 -47.2396,0.25974 0,33.49268 0,33.49268 33.7426,0.26324 33.7426,0.26324 0,29.46696 0,29.46696 -33.7426,0.26324 -33.7426,0.26324 0,34.99235 0,34.99236 47.2396,0.25974 47.2398,0.25974 0,29.48375 0,29.48377 -78.9829,0 -78.9827,0 0,-157.96548 z m 204.9552,0 0,-157.96547 47.7396,0.015 c 51.6269,0.016 54.6192,0.26844 65.7829,5.54968 2.9692,1.4047 6.9158,4.32645 8.7702,6.49299 1.8546,2.16642 3.7785,3.93904 4.2756,3.93904 0.4971,-10e-5 2.1404,-1.54977 3.6517,-3.44385 3.315,-4.1547 15.0582,-10.14949 22.6332,-11.55408 3.1011,-0.57507 25.469,-0.99858 52.7384,-0.99858 l 47.3531,0 0,157.96547 0,157.96548 -31.4893,0 -31.4893,0 -0.2537,-128.22198 -0.2537,-128.22197 -8.9981,0.042 c -10.5083,0.048 -15.1185,1.78471 -19.3022,7.26962 l -2.693,3.53052 -0.2616,122.80117 -0.2616,122.80116 -31.4815,0 -31.4814,0 0,-121.00566 c 0,-99.36948 -0.2416,-121.58373 -1.3507,-124.23844 -1.8291,-4.37764 -7.7453,-9.38025 -12.6576,-10.70296 -2.2201,-0.59788 -7.0625,-0.95419 -10.7608,-0.79193 l -6.724,0.29504 -0.2538,128.22197 -0.2537,128.22198 -31.4894,0 -31.4893,0 0,-157.96548 z m 301.946,21.74525 c 0.013,-147.90637 -0.2454,-140.79963 5.53,-152.21433 5.4821,-10.83553 14.4364,-19.43965 25.9512,-24.93675 11.8642,-5.66387 14.9693,-6.05958 47.4896,-6.05218 33.1216,0.01 36.5042,0.5003 49.1861,7.16454 12.5802,6.61066 21.4219,16.62516 26.7567,30.30547 l 2.54,6.51368 0.2738,137.7199 0.2738,137.7199 -31.5096,0 -31.5097,0 -0.2573,-64.73586 -0.2573,-64.73585 -15.4965,0 -15.4966,0 -0.2573,64.73585 -0.2572,64.73586 -31.4858,0 -31.4858,0 0.012,-136.22023 z m 94.4673,-87.40869 c 0,-32.9528 -0.073,-34.26872 -2.0613,-36.93013 -5.3426,-7.15294 -13.0972,-9.1763 -20.8274,-5.43421 -8.6407,4.18288 -8.6043,4.00412 -8.6043,42.24356 0,18.40188 0.3112,33.76912 0.6915,34.14944 0.3804,0.38041 7.4663,0.56787 15.7465,0.41661 l 15.055,-0.27494 0,-34.17033 z m 162.9644,-125.66073 c -14.9939,-4.89004 -24.9146,-14.37456 -30.4675,-29.12764 -1.9532,-5.18946 -2.3285,-8.52764 -2.7816,-24.74459 l -0.5238,-18.7459 25.1347,0 25.1346,0 0,11.61506 0,11.61516 3.8816,3.88145 c 3.5203,3.52033 4.3685,3.88155 9.1157,3.88155 4.7514,0 5.5938,-0.35972 9.1349,-3.90094 l 3.901,-3.90085 -0.2694,-22.34342 -0.2693,-22.34331 -19.9957,-0.53589 c -17.5199,-0.4695 -20.6735,-0.80872 -25.4716,-2.7396 -16.0134,-6.44469 -26.5157,-19.76628 -28.9696,-36.74687 -0.6004,-4.15399 -1.015,-35.93274 -1.0268,-78.70169 l -0.02,-71.734323 24.9946,0 24.9944,0 0,69.349933 c 0,68.81356 0.016,69.37054 2.0879,72.00427 4.213,5.35593 11.1968,7.06735 16.8694,4.134 1.5738,-0.81392 3.8009,-2.67412 4.9493,-4.134 2.0716,-2.63373 2.0878,-3.19071 2.0878,-72.00427 l 0,-69.349933 25.0207,0 25.0208,0 -0.2762,124.722733 -0.2761,124.72274 -2.1952,5.74744 c -2.8116,7.3612 -8.5118,15.94242 -13.1595,19.81058 -2.0026,1.66673 -6.9903,4.69626 -11.0837,6.73222 l -7.4424,3.70189 -27.05,0.21926 c -20.0433,0.16246 -28.0859,-0.11867 -31.0492,-1.08506 z"
         style="fill:#000000" />
      <path
         style="fill:#000000"
         d="m 1529.1697,733.20364 c -21.3896,-5.17087 -39.7499,-23.92097 -43.5141,-44.43799 -0.5852,-3.1896 -0.9067,-17.68383 -0.7543,-33.99256 l 0.2658,-28.43199 31.9931,0 31.993,0 0.4998,20.49552 c 0.4216,17.28082 0.773,20.89713 2.2407,23.05576 2.3488,3.45475 8.7881,6.93768 12.8264,6.93768 4.4418,0 11.4551,-3.52743 13.9334,-7.00796 1.9424,-2.7279 2.0102,-4.1028 1.7567,-35.65641 l -0.2638,-32.81913 -23.4949,-0.60636 c -22.3118,-0.57578 -23.9185,-0.74884 -31.9102,-3.43695 -10.1545,-3.41566 -18.1692,-8.58662 -25.1754,-16.24265 -5.9568,-6.50928 -12.3801,-19.03754 -13.8894,-27.09018 -0.5842,-3.11692 -1.003,-23.96246 -0.9944,-49.48918 0.012,-35.77249 0.2994,-45.312 1.5223,-50.49936 4.6355,-19.6655 21.2416,-35.93455 42.7359,-41.86855 9.1936,-2.53814 64.2249,-2.53814 73.4185,0 21.2907,5.87781 38.3788,22.47469 42.2165,41.00303 0.6919,3.34028 0.9926,17.12566 0.8233,37.75435 l -0.2665,32.4929 -31.9929,0 -31.9931,0 -0.2684,-23.92468 c -0.2646,-23.58594 -0.3028,-23.96965 -2.693,-27.10336 -6.6681,-8.74219 -20.1851,-8.47585 -26.135,0.51498 l -2.4237,3.6625 0.2635,33.92298 0.2635,33.92299 23.4948,0.64776 c 16.6583,0.4593 25.1675,1.11005 29.243,2.23661 20.3628,5.62867 36.0614,21.09339 41.2663,40.65142 2.2593,8.48994 2.1432,98.3189 -0.1371,106.00003 -5.7945,19.51853 -22.0074,34.57904 -42.3783,39.36589 -9.0643,2.13003 -63.6025,2.08704 -72.472,-0.057 z m 317.0749,0.069 c -16.201,-4.02193 -32.4345,-17.21095 -39.1958,-31.84505 -4.7582,-10.29844 -5.5883,-18.07334 -5.2416,-49.09177 l 0.2907,-25.99431 31.993,0 31.993,0 0.4998,20.07701 c 0.4959,19.91335 0.5219,20.10571 3.193,23.60414 5.5262,7.23792 15.3069,8.71139 22.3199,3.36237 6.3697,-4.85844 6.5381,-5.9564 6.2445,-40.72631 l -0.2643,-31.31215 -23.9947,-0.63956 c -18.5209,-0.49359 -25.2488,-1.03237 -29.4918,-2.36188 -20.0666,-6.28763 -34.7534,-20.73427 -40.6542,-39.98916 -1.6745,-5.4644 -1.8382,-10.22877 -1.8382,-53.48831 0,-46.24419 0.058,-47.67428 2.215,-54.52968 5.7107,-18.15073 21.503,-32.67796 41.5582,-38.22914 5.2855,-1.46298 10.9296,-1.71612 37.709,-1.69094 l 31.4931,0.03 7.9982,2.79329 c 11.0143,3.84666 17.0611,7.51836 24.4819,14.86605 7.754,7.67742 13.4331,18.7507 15.0123,29.2711 0.608,4.05071 0.9339,19.42146 0.7737,36.49202 l -0.2766,29.49356 -31.9931,0 -31.9929,0 -0.4999,-23.49487 c -0.5442,-25.57211 -0.6585,-26.10669 -6.5542,-30.60351 -7.612,-5.80582 -18.7045,-3.60141 -23.335,4.63739 -2.0725,3.68749 -2.1238,4.70717 -1.8675,37.12399 l 0.2636,33.33241 23.9948,0.59887 c 23.2352,0.57977 24.2651,0.69245 32.537,3.55912 18.8777,6.54207 30.8281,18.73891 37.5584,38.33272 1.7492,5.09259 1.8888,9.04412 1.8888,53.48831 0,46.91324 -0.05,48.14917 -2.2388,55.10795 -5.1756,16.45591 -17.9337,29.2595 -36.1332,36.26188 -6.5566,2.52265 -6.9253,2.54854 -39.611,2.78059 -26.0965,0.18525 -34.214,-0.069 -38.8351,-1.21623 z m -156.1549,-2.68962 c -0.2645,-0.69525 -0.3653,-72.12353 -0.2241,-158.7296 l 0.2567,-157.46558 31.4931,0 31.4931,0 0,158.46536 0,158.46536 -31.269,0.26424 c -24.4783,0.20685 -31.3735,-0.01 -31.7498,-0.99978 z m 351.9266,-2e-4 c -0.2624,-0.69515 -0.588,-58.40133 -0.7238,-128.23607 l -0.2469,-126.97225 -23.4948,-0.49988 -23.4949,-0.49989 0,-29.99345 0,-29.99344 79.4826,0 79.4827,0 0,29.99344 0,29.99345 -22.995,0.49989 -22.995,0.49988 -0.4999,127.97204 -0.4999,127.97202 -31.769,0.26404 c -24.88,0.20675 -31.8725,-0.01 -32.2461,-0.99978 z m 153.9596,-0.01 c -0.2627,-0.69065 -0.3621,-72.11523 -0.2209,-158.7213 l 0.2568,-157.46558 79.4825,0 79.4827,0 0,29.99344 0,29.99345 -46.9897,0.49989 -46.9898,0.49988 0,32.49291 0,32.49289 33.4928,0.4999 33.4926,0.49989 0,29.99344 0,29.99344 -33.4926,0.4999 -33.4928,0.49988 0,33.99257 0,33.99257 46.9898,0.49989 46.9897,0.4999 0,29.99344 0,29.99344 -79.2618,0.25595 c -62.8806,0.20306 -79.3604,0 -79.7393,-0.99979 z m 204.9583,0.01 c -0.2645,-0.69515 -0.3653,-72.12333 -0.224,-158.7294 l 0.2568,-157.46558 46.9897,-0.29473 c 32.1793,-0.20186 48.873,0.064 52.9649,0.84461 9.3606,1.78511 17.7638,5.59027 22.0588,9.98901 2.1257,2.17683 4.3602,3.95794 4.9656,3.95794 0.6053,0 2.5814,-1.52786 4.3914,-3.39516 3.9585,-4.0842 14.7321,-9.23268 22.2142,-10.61587 3.2948,-0.60908 24.1545,-0.90311 52.8999,-0.74575 l 47.4599,0.25955 0,158.46536 0,158.46536 -31.993,0 -31.9929,0 -0.5,-127.97202 -0.4998,-127.97204 -8.4982,0.029 c -9.7856,0.033 -15.2735,2.34049 -18.5861,7.81349 -1.8444,3.04764 -1.9264,7.32611 -2.4093,125.62834 l -0.4999,122.47323 -31.993,0 -31.993,0 -0.4999,-122.47323 -0.4999,-122.47323 -2.2674,-3.1788 c -4.1919,-5.87702 -8.6452,-7.7836 -18.2238,-7.8023 l -8.5025,-0.017 -0.4998,127.97204 -0.4999,127.97202 -31.7691,0.26404 c -24.8785,0.20675 -31.8734,-0.01 -32.2497,-0.99978 z m 302.1472,0.58287 c -0.3742,-0.37411 -0.6751,-61.90436 -0.6685,-136.7339 0.01,-116.14862 0.2257,-136.85699 1.4731,-141.54486 4.07,-15.29466 15.5755,-29.12234 29.9033,-35.93905 13.066,-6.21624 15.6153,-6.55996 48.5943,-6.55246 33.0004,0.01 35.9667,0.43359 49.1129,7.05395 12.8476,6.46999 23.3068,18.48796 28.0585,32.24025 l 2.3112,6.68904 0,137.46995 0,137.46995 -31.993,0 -31.9931,0 -0.4998,-64.48591 -0.4999,-64.4859 -14.4968,0 -14.4969,0 -0.4998,64.4859 -0.4999,64.48591 -31.5627,0.26374 c -17.3594,0.14507 -31.8687,-0.042 -32.2429,-0.41661 z m 94.0882,-221.79901 c 0.1589,-17.04627 0.025,-32.46211 -0.2981,-34.25732 -0.7773,-4.32125 -6.507,-9.95802 -10.974,-10.79604 -5.817,-1.09126 -10.2695,0.32024 -14.5673,4.618 l -3.9433,3.94334 0,33.32601 c 0,18.32939 0.3117,33.63785 0.6927,34.01886 0.3811,0.38102 7.0172,0.56848 14.7467,0.41661 l 14.0541,-0.27624 z m 163.6749,-126.84028 c -15.4009,-5.0307 -25.4766,-14.52372 -31.1669,-29.36528 -2.4403,-6.3644 -2.5983,-7.86727 -2.7085,-25.75467 l -0.1171,-18.99585 25.4945,0 25.4944,0 0.2816,11.74583 0.2816,11.74585 3.501,3.50083 c 3.055,3.05503 4.1288,3.50083 8.4331,3.50083 4.3177,0 5.3748,-0.4425 8.4841,-3.55193 l 3.5519,-3.55192 -0.2693,-21.69255 -0.2693,-21.69257 -19.4957,-0.54338 c -21.3956,-0.59626 -25.4755,-1.52766 -35.3539,-8.07094 -10.3383,-6.84779 -17.8614,-19.6202 -19.6592,-33.37649 -0.6674,-5.10599 -0.9421,-33.66774 -0.7601,-78.98274 l 0.2853,-70.984483 25.4945,0 25.4944,0 0.2384,68.984923 c 0.1773,51.27729 0.5462,69.57109 1.437,71.26862 1.6732,3.1883 6.9429,6.21444 10.8219,6.21444 3.8789,0 9.1485,-3.02614 10.8218,-6.21444 0.8907,-1.69753 1.2597,-19.99133 1.437,-71.26862 l 0.2384,-68.984923 25.4944,0 25.4944,0 0,124.972683 0,124.97268 -2.2539,5.9179 c -4.9721,13.05556 -12.6947,21.50241 -25.0543,27.40462 l -7.6841,3.66939 -26.9941,0.21925 c -20.0207,0.16257 -28.0272,-0.11827 -30.9933,-1.08706 z"
         id="path4406"
         inkscape:connector-curvature="0"
         sodipodi:nodetypes="csscccscscscsssssssscscccssccccssssscccsscccsssscsssscsccsscscccsssscsssscsscccscccccsccscccccccccccccsccscccccccccccccccccccccsccscsccscsscccccccccscccccsccccscccssscsscccccccccccscscsscscscsccsccccccsccccsscscccscscscccccsscsc" />
      <path
         sodipodi:nodetypes="cscccssscccssscsscscscsssscsssssscccsccscccccccsscsccsccccssscc"
         inkscape:connector-curvature="0"
         id="path4408"
         d="m 743.70724,844.23947 c 25.01323,-2.90707 58.00322,-9.67349 80.35434,-16.481 l 6.74852,-2.05545 0,-259.89589 0,-259.89598 11.31602,0 c 7.22023,0 13.17052,0.55068 16.43981,1.52155 6.79662,2.01837 15.15228,9.6238 18.35229,16.70435 l 2.38128,5.26896 0.26414,237.69804 0.26415,237.69804 2.30789,0 c 5.39182,0 38.4472,-18.06375 63.14939,-34.50926 19.08754,-12.70762 33.88913,-24.02254 49.73917,-38.02279 l 10.74766,-9.49332 0,-195.75401 c 0,-216.49907 -0.4683,-201.2859 6.4756,-210.38002 2.3001,-3.01234 5.4539,-5.53438 9.2545,-7.40068 5.295,-2.60003 6.846,-2.85767 19.0123,-3.15841 l 13.2472,-0.32742 0,177.10449 c 0,120.17072 0.3327,177.72624 1.0349,179.03836 0.5692,1.06367 1.6514,1.93387 2.4048,1.93387 1.4736,0 7.6795,-8.09412 17.2473,-22.49508 82.3536,-123.95601 98.8561,-283.19239 43.8282,-422.90756 -2.5989,-6.59856 -7.5853,-17.97976 -11.0807,-25.29147 l -6.3555,-13.294 -55.7825,0.33404 c -63.31335,0.37921 -60.16414,0.021 -78.23643,8.90375 -8.18481,4.02302 -11.97759,6.62795 -17.45869,11.99078 -6.06387,5.9331 -7.12674,6.61725 -7.93217,5.10558 -2.7347,-5.13268 -11.36641,-11.70704 -22.00578,-16.76054 -20.19149,-9.5906 -11.12627,-8.88925 -119.35811,-9.23427 l -95.22919,-0.30344 0,333.60558 0,333.60567 13.12523,-0.69295 c 7.21893,-0.38111 18.8039,-1.3528 25.74438,-2.15952 z m -135.25811,-12.7984 c 17.25847,-13.64692 30.8094,-34.93397 37.64232,-59.13188 l 2.25851,-7.99825 0.26319,-292.18613 0.2632,-292.18613 -62.99164,0 -62.99165,0 -0.25778,248.69563 -0.25779,248.69565 -2.16189,3.99911 c -6.86268,12.69474 -21.31164,17.4425 -33.27204,10.93282 -2.91371,-1.58586 -6.42101,-4.35615 -7.794,-6.15615 -4.77823,-6.26464 -5.17067,-9.00254 -5.21758,-36.40314 l -0.0439,-25.62771 -2.24952,-0.60286 c -1.23722,-0.33163 -28.56875,-0.60287 -60.73671,-0.60287 -32.16797,0 -59.49949,0.27124 -60.73672,0.60287 l -2.24952,0.60286 0,36.68679 0,36.68688 17.24623,17.01067 c 9.48543,9.35576 22.64505,21.47991 29.24361,26.94252 53.58425,44.3591 114.78567,75.29544 182.96,92.48328 21.0587,5.30924 21.30284,5.29004 31.08366,-2.44396 z"
         style="fill:#ffffff" />
    </g>
  </g>
</svg>
